<svg width="30" height="29" viewBox="0 0 30 29" fill="none" xmlns="http://www.w3.org/2000/svg">
<path d="M29.2949 22.9316C29.2949 26.2123 26.6079 28.8532 23.3071 28.8532H6.10688C2.78957 28.8532 0.119141 26.1959 0.119141 22.9316V5.92154C0.119141 2.65731 2.80616 0 6.10688 0H23.3071C26.6244 0 29.2949 2.65731 29.2949 5.92154V22.9316Z" fill="#F07D00"/>
<path d="M23.3752 8.00462H26.0622V3.80541H22.7117H22.0151C22.0151 3.80541 19.4773 3.73979 17.8684 5.823C17.8684 5.823 16.7737 6.8564 16.7571 9.85818V12.9912H12.7764V17.4365H16.7571V28.9187H21.3516V17.4365H25.3158L25.8632 12.9912H21.3516V9.85818C21.3682 9.51372 21.5175 7.97182 23.3752 8.00462Z" fill="white"/>
</svg>
