<svg width="30" height="29" viewBox="0 0 30 29" fill="none" xmlns="http://www.w3.org/2000/svg">
<path d="M2.1307 2.01338C-0.141405 4.37324 0.323616 6.88007 0.323616 14.4957C0.323616 20.82 -0.779906 27.1599 4.99552 28.6525C6.79898 29.1162 22.7784 29.1162 24.5794 28.6501C26.984 28.0297 28.9405 26.0794 29.208 22.6787C29.2453 22.2041 29.2453 6.79574 29.2068 6.31149C28.9224 2.68918 26.6925 0.601562 23.7542 0.178738C23.0808 0.0811634 22.9458 0.0522524 19.4907 0.0462293C7.23509 0.0522524 4.54857 -0.493443 2.1307 2.01338V2.01338Z" fill="url(#paint0_linear_5_582)"/>
<path d="M14.6227 4.01024C10.2718 4.01024 6.14012 3.62346 4.56199 7.67092C3.91013 9.3426 4.0048 11.5136 4.0048 14.6223C4.0048 17.3501 3.91732 19.9139 4.56199 21.5724C6.13652 25.6223 10.3017 25.2343 14.6203 25.2343C18.7867 25.2343 23.0825 25.6678 24.6798 21.5724C25.3329 19.884 25.237 17.7453 25.237 14.6223C25.237 10.4766 25.4659 7.80025 23.454 5.79089C21.4169 3.75518 18.6621 4.01024 14.6179 4.01024H14.6227ZM13.6713 5.92261C22.747 5.90824 23.9021 4.89997 23.2647 18.9068C23.0382 23.8608 19.2636 23.3171 14.6239 23.3171C6.16408 23.3171 5.92084 23.0752 5.92084 14.6175C5.92084 6.06152 6.59187 5.9274 13.6713 5.92021V5.92261ZM20.2905 7.6841C19.5872 7.6841 19.0168 8.25409 19.0168 8.95701C19.0168 9.65993 19.5872 10.2299 20.2905 10.2299C20.9939 10.2299 21.5643 9.65993 21.5643 8.95701C21.5643 8.25409 20.9939 7.6841 20.2905 7.6841V7.6841ZM14.6227 9.17256C11.6114 9.17256 9.17056 11.613 9.17056 14.6223C9.17056 17.6315 11.6114 20.0708 14.6227 20.0708C17.634 20.0708 20.0737 17.6315 20.0737 14.6223C20.0737 11.613 17.634 9.17256 14.6227 9.17256V9.17256ZM14.6227 11.0849C19.302 11.0849 19.308 18.1596 14.6227 18.1596C9.94464 18.1596 9.93745 11.0849 14.6227 11.0849Z" fill="white"/>
<defs>
<linearGradient id="paint0_linear_5_582" x1="2.18614" y1="27.1107" x2="29.0562" y2="3.85316" gradientUnits="userSpaceOnUse">
<stop stop-color="#F07D00"/>
</linearGradient>
</defs>
</svg>
