<svg width="30" height="29" viewBox="0 0 30 29" fill="none" xmlns="http://www.w3.org/2000/svg">
<path d="M2.87191 2.01338C0.599806 4.37324 1.06483 6.88007 1.06483 14.4957C1.06483 20.82 -0.0386953 27.1599 5.73673 28.6525C7.54019 29.1162 23.5196 29.1162 25.3206 28.6501C27.7253 28.0297 29.6817 26.0794 29.9492 22.6787C29.9865 22.2041 29.9865 6.79574 29.948 6.31149C29.6636 2.68918 27.4337 0.601562 24.4954 0.178738C23.822 0.0811634 23.687 0.0522524 20.2319 0.0462293C7.9763 0.0522524 5.28978 -0.493443 2.87191 2.01338V2.01338Z" fill="url(#paint0_linear_5_585)"/>
<path d="M25.0376 10.0543C24.8066 9.21553 24.1299 8.55436 23.2717 8.3285C21.7038 7.90918 15.432 7.90918 15.432 7.90918C15.432 7.90918 9.16047 7.90918 7.59254 8.31251C6.75086 8.53823 6.05762 9.21568 5.82664 10.0543C5.41406 11.5864 5.41406 14.7637 5.41406 14.7637C5.41406 14.7637 5.41406 17.9571 5.82664 19.4731C6.05778 20.3118 6.73435 20.9731 7.59269 21.199C9.17698 21.6183 15.4322 21.6183 15.4322 21.6183C15.4322 21.6183 21.7038 21.6183 23.2717 21.2149C24.13 20.9892 24.8066 20.3279 25.0378 19.4893C25.4503 17.9571 25.4503 14.7799 25.4503 14.7799C25.4503 14.7799 25.4669 11.5864 25.0376 10.0543Z" fill="white"/>
<path d="M13.8506 17.9274L19.1233 14.7637L13.8506 11.6001V17.9274Z" fill="#F07D00"/>
<defs>
<linearGradient id="paint0_linear_5_585" x1="2.92735" y1="27.1107" x2="29.7974" y2="3.85316" gradientUnits="userSpaceOnUse">
<stop stop-color="#F07D00"/>
</linearGradient>
</defs>
</svg>
